<?xml version="1.0" encoding="UTF-8"?>
<svg version="1.1" xmlns="http://www.w3.org/2000/svg" width="979" height="973">
<path d="M0 0 C323.07 0 646.14 0 979 0 C979 321.09 979 642.18 979 973 C655.93 973 332.86 973 0 973 C0 651.91 0 330.82 0 0 Z " fill="#FEFDFE" transform="translate(0,0)"/>
<path d="M0 0 C1.8132752 1.45259648 3.60786826 2.92910718 5.375 4.4375 C6.03757812 4.99953125 6.70015625 5.5615625 7.3828125 6.140625 C17.70216709 15.67330233 22.7206952 28.11428198 27 41.125 C27.34119873 42.1557666 27.68239746 43.1865332 28.03393555 44.24853516 C30.78698677 52.5917562 33.49416527 60.94983449 36.1875 69.3125 C36.5602002 70.46967529 36.93290039 71.62685059 37.31689453 72.8190918 C38.89578667 77.74284582 40.44996906 82.66562534 41.88671875 87.6328125 C42.85274017 90.90100996 43.98330656 94.01830528 45.29296875 97.1640625 C47.66594037 102.94163459 49.38552209 108.87991146 51.12454224 114.87356567 C54.21080626 125.50324989 57.4471522 136.04240152 61.34301758 146.40966797 C62.7392947 150.20176806 63.75318214 153.37405357 63.375 157.4375 C69.4808776 155.49964168 75.48143613 153.45551737 81.375 150.9375 C86.30159952 148.83343145 91.27144922 147.11579901 96.3671875 145.47265625 C99.47853425 144.40186808 102.47583839 143.1705168 105.5 141.875 C110.02544094 139.94145643 114.52861553 138.39473294 119.26171875 137.05859375 C121.51033064 136.43686554 121.51033064 136.43686554 124.125 135.3125 C135.80421642 130.7705825 151.17435569 132.63080639 162.375 137.4375 C177.22546651 144.58048755 187.92664819 156.91262657 193.375 172.4375 C197.00920555 188.55448488 195.00171224 204.54023987 186.44140625 218.6171875 C184.53791092 221.3555492 182.54201766 223.90434577 180.375 226.4375 C179.83230469 227.09105469 179.28960938 227.74460937 178.73046875 228.41796875 C169.21871167 238.9017302 154.97073301 243.14265654 142.0625 247.8125 C139.38413426 248.79493177 136.70718978 249.78116577 134.03034973 250.76774597 C132.26957821 251.41649174 130.5083417 252.06397697 128.74662781 252.7101593 C120.70274933 255.6655978 112.72906221 258.78257183 104.78588867 261.99951172 C103.9632251 262.32838379 103.14056152 262.65725586 102.29296875 262.99609375 C101.59969482 263.27767334 100.9064209 263.55925293 100.19213867 263.84936523 C98.375 264.4375 98.375 264.4375 95.375 264.4375 C95.519375 265.19546875 95.66375 265.9534375 95.8125 266.734375 C101.09395225 299.15662352 96.60883055 332.30158102 81.375 361.4375 C80.78074219 362.58347656 80.18648437 363.72945312 79.57421875 364.91015625 C61.27552953 398.51458139 31.1159574 423.35144343 -5.625 434.4375 C-6.49769531 434.72882813 -7.37039063 435.02015625 -8.26953125 435.3203125 C-17.3578497 438.26864888 -26.06853081 439.4375 -35.625 439.4375 C-35.625 458.5775 -35.625 477.7175 -35.625 497.4375 C-28.34308594 497.36789062 -21.06117188 497.29828125 -13.55859375 497.2265625 C-8.94202516 497.1959008 -4.32558233 497.16701708 0.29101562 497.14453125 C7.61688345 497.10868032 14.94230082 497.06629464 22.26782227 496.98486328 C28.17469655 496.91961358 34.08108771 496.88378135 39.9882946 496.86823654 C42.24057558 496.85716048 44.49283047 496.83553111 46.74490547 496.80311966 C49.90286261 496.75948339 53.05883031 496.75356913 56.21704102 496.75634766 C57.60995361 496.72399017 57.60995361 496.72399017 59.03100586 496.690979 C64.76729715 496.74549529 67.88124057 497.85933011 72.12762356 501.75221825 C73.9950637 504.27524392 74.21633002 506.46360283 73.9453125 509.5390625 C72.97818213 512.75841428 70.95273802 514.41213441 68.375 516.4375 C65.03274031 518.10862984 61.27084956 517.58929572 57.59503174 517.59140015 C56.67467345 517.5957824 55.75431516 517.60016465 54.80606723 517.6046797 C51.70306625 517.61810004 48.60009369 517.62425381 45.49707031 517.63037109 C43.27993643 517.63826949 41.06280383 517.64653827 38.84567261 517.65515137 C31.54816928 517.68140097 24.25066013 517.69668151 16.953125 517.7109375 C14.44399766 517.71629589 11.93487036 517.7216734 9.4257431 517.72706985 C-1.00903658 517.7487025 -11.44381612 517.76759183 -21.87861252 517.77869225 C-24.58704381 517.78162198 -27.29547505 517.78458364 -30.00390625 517.78759766 C-30.67708032 517.78834371 -31.3502544 517.78908976 -32.04382768 517.78985842 C-42.94875703 517.80251193 -53.85352333 517.83573441 -64.75837645 517.87739949 C-75.95236257 517.9198189 -87.14629005 517.94297964 -98.34036183 517.94861281 C-104.62618278 517.95227159 -110.91172739 517.96434914 -117.19747162 517.99671555 C-123.11051413 518.02672589 -129.02311209 518.03313291 -134.93621445 518.02133179 C-137.10743997 518.02111047 -139.27868571 518.02946352 -141.44984055 518.04698563 C-144.41279795 518.06959774 -147.37413251 518.06141877 -150.33709717 518.04550171 C-151.19761019 518.0593838 -152.05812322 518.07326588 -152.9447124 518.08756864 C-157.13943583 518.03199398 -159.82168163 517.70795855 -163.15788651 515.04207802 C-165.625 512.4375 -165.625 512.4375 -166.38671875 510.15625 C-166.24102635 505.80081398 -166.05069543 503.97522054 -163.25 500.4375 C-159.97913042 497.94540889 -158.48833424 497.31236212 -154.47421265 497.31724548 C-153.60480545 497.31587082 -152.73539825 497.31449615 -151.83964539 497.31307983 C-150.88370987 497.31667511 -149.92777435 497.32027039 -148.94287109 497.32397461 C-147.43550636 497.32375557 -147.43550636 497.32375557 -145.89768982 497.3235321 C-142.56458402 497.32423071 -139.23153358 497.33202067 -135.8984375 497.33984375 C-133.59201081 497.34170812 -131.28558372 497.34313193 -128.97915649 497.34413147 C-122.89968783 497.34795518 -116.82024294 497.35778424 -110.74078369 497.36883545 C-103.45122774 497.38084813 -96.16166384 497.38545251 -88.87210083 497.39128876 C-77.78971734 497.40099605 -66.70738604 497.42015366 -55.625 497.4375 C-55.625 478.2975 -55.625 459.1575 -55.625 439.4375 C-60.245 439.1075 -64.865 438.7775 -69.625 438.4375 C-98.39803916 433.55151222 -122.50255822 420.37093016 -143.625 400.4375 C-144.36234375 399.76460937 -145.0996875 399.09171875 -145.859375 398.3984375 C-155.49746122 389.27301544 -163.18069921 377.99373559 -169.625 366.4375 C-174.15491448 367.25138534 -178.39311164 368.20207697 -182.5625 370.1875 C-187.939331 372.73743584 -193.57432861 374.46366749 -199.24194336 376.24316406 C-203.42868342 377.58644542 -206.85139782 379.15199053 -210.625 381.4375 C-226.08989465 386.3498783 -240.49554784 385.30674897 -255.625 380.4375 C-255.625 379.7775 -255.625 379.1175 -255.625 378.4375 C-256.57375 378.293125 -257.5225 378.14875 -258.5 378 C-267.19345627 375.53127002 -275.514032 365.76169953 -279.9921875 358.09765625 C-287.34863202 343.97241219 -290.14460954 328.80287535 -286 313.1875 C-281.23211919 298.50440684 -272.25964909 285.84151244 -258.74609375 277.98828125 C-252.93281661 275.09983191 -246.93046128 272.84279432 -240.84130859 270.61865234 C-236.86202616 269.15730663 -232.8942612 267.66615702 -228.92578125 266.17578125 C-225.76348573 264.99094322 -222.60057736 263.80774902 -219.4375 262.625 C-218.66116211 262.33437683 -217.88482422 262.04375366 -217.08496094 261.74432373 C-214.83507491 260.90340863 -212.58377835 260.06638579 -210.33203125 259.23046875 C-209.6596492 258.97864334 -208.98726715 258.72681793 -208.29450989 258.46736145 C-205.11382215 257.29062386 -202.04396833 256.30223472 -198.73535156 255.53198242 C-195.56289543 254.79396471 -195.56289543 254.79396471 -194.54663086 252.57861328 C-194.35145874 251.36794189 -194.35145874 251.36794189 -194.15234375 250.1328125 C-192.92294231 244.38936359 -191.17199826 239.0102742 -189.19140625 233.4921875 C-188.87029877 232.59131409 -188.54919128 231.69044067 -188.21835327 230.76226807 C-187.55073434 228.89339431 -186.88115881 227.02521846 -186.2097168 225.15771484 C-185.1881077 222.31419145 -184.17467545 219.46784813 -183.16210938 216.62109375 C-182.50569347 214.7862847 -181.84880828 212.95164346 -181.19140625 211.1171875 C-180.89335587 210.27944794 -180.59530548 209.44170837 -180.28822327 208.57858276 C-178.55368267 203.77101396 -176.62229679 199.11087381 -174.51301575 194.45623779 C-173.40009395 191.92621815 -172.50272501 189.36202373 -171.66015625 186.73046875 C-171.33748779 185.73740723 -171.01481934 184.7443457 -170.68237305 183.72119141 C-170.35406494 182.69944824 -170.02575684 181.67770508 -169.6875 180.625 C-167.27450666 173.23307194 -164.76698868 166.02056449 -161.64453125 158.8984375 C-160.26675224 155.57276403 -159.28193045 152.17738915 -158.296875 148.71875 C-157.49783171 146.0057193 -156.51603564 143.37533307 -155.49609375 140.73828125 C-154.38409584 137.80121053 -153.35337729 134.83800852 -152.3125 131.875 C-150.6212966 127.10751267 -148.81352493 122.42179137 -146.875 117.75 C-143.44934446 109.43607504 -140.7185797 100.88509391 -137.95996094 92.33129883 C-135.82249416 85.76889243 -133.42576143 79.41662275 -130.71606445 73.06958008 C-129.43207833 69.97209644 -128.41867871 66.84865187 -127.5 63.625 C-126.39262107 59.75897357 -125.08209429 56.15771244 -123.45947266 52.47973633 C-122.08462285 49.11501467 -121.00693814 45.65372204 -119.87304688 42.2019043 C-116.74482222 32.75371697 -113.76747672 24.35842209 -107.625 16.4375 C-107.05652344 15.61894531 -106.48804688 14.80039063 -105.90234375 13.95703125 C-94.81566251 -1.22536663 -76.85895637 -11.9308433 -58.4140625 -15.1171875 C-36.84734116 -17.6518331 -17.57670911 -12.88518149 0 0 Z " fill="#064D34" transform="translate(536.625,202.5625)"/>
<path d="M0 0 C17.42861553 9.70057825 24.58236754 23.20571421 30.23925781 41.45556641 C31.38203339 45.07074507 32.57993387 48.66578472 33.79296875 52.2578125 C34.01270859 52.90958466 34.23244843 53.56135681 34.45884705 54.23287964 C35.54385711 57.44966604 36.63065215 60.66584478 37.71801758 63.88183594 C39.69694514 69.7912821 41.58026887 75.70173297 43.26171875 81.703125 C45.32238969 89.04738296 47.74576444 96.24675053 50.20703125 103.46484375 C53.30658152 112.61568076 56.25119239 121.76606678 58.7097168 131.11376953 C59.95503723 135.79236526 61.57681021 140.15029811 63.48828125 144.58984375 C64.72017229 147.94058738 65.00668176 151.16637565 65.26953125 154.71484375 C64.10679687 155.15054688 62.9440625 155.58625 61.74609375 156.03515625 C58.98975139 157.06863319 56.23442964 158.10472611 53.48046875 159.14453125 C52.20190796 159.62652772 50.92325985 160.10829264 49.64453125 160.58984375 C48.95866943 160.84813965 48.27280762 161.10643555 47.56616211 161.37255859 C43.00598751 163.08282092 38.42744519 164.72671903 33.83203125 166.33984375 C30.08508622 167.66477702 26.43332236 169.03513708 22.83203125 170.71484375 C17.64150338 173.11570589 12.20398907 174.78919381 6.77734375 176.5625 C2.04320584 178.11770121 -2.59205515 179.797892 -7.171875 181.76171875 C-15.32135285 185.2527329 -23.6177212 188.18313383 -31.99609375 191.06640625 C-38.57457591 193.33979371 -45.04065678 195.82363055 -51.48046875 198.46484375 C-59.259338 201.61805857 -67.16695437 204.36934746 -75.1015625 207.1015625 C-79.34018581 208.56633904 -83.53896824 210.12098238 -87.73046875 211.71484375 C-89.02845075 212.20364335 -90.32662832 212.69192392 -91.625 213.1796875 C-92.59469727 213.54416992 -92.59469727 213.54416992 -93.58398438 213.91601562 C-94.55368164 214.28049805 -94.55368164 214.28049805 -95.54296875 214.65234375 C-96.17783203 214.89146484 -96.81269531 215.13058594 -97.46679688 215.37695312 C-102.13433364 217.1301706 -106.81567636 218.8432771 -111.50268555 220.54370117 C-114.58826395 221.66324732 -117.67285762 222.78545874 -120.75715637 223.90852356 C-123.66950109 224.96895835 -126.58206876 226.02878013 -129.49462891 227.08862305 C-130.99956262 227.63633478 -132.50444448 228.18418899 -134.00927734 228.73217773 C-136.2078711 229.53276552 -138.40665118 230.33283965 -140.60546875 231.1328125 C-141.27731201 231.37758835 -141.94915527 231.6223642 -142.64135742 231.8745575 C-145.32899523 232.85190987 -148.01721256 233.81042502 -150.73046875 234.71484375 C-149.26105735 229.0456253 -147.75064445 223.46371329 -145.61328125 218.0078125 C-144.42832703 214.93007743 -143.33360934 211.82279373 -142.23046875 208.71484375 C-137.88885005 196.53239128 -137.88885005 196.53239128 -135.8359375 191.5390625 C-133.24321848 185.22770265 -131.06722227 178.81945223 -128.9765625 172.328125 C-127.72532744 168.69993556 -126.26173587 165.2328318 -124.73046875 161.71484375 C-123.77508434 159.28222629 -122.83478159 156.84924919 -121.91796875 154.40234375 C-121.66152588 153.72010742 -121.40508301 153.03787109 -121.14086914 152.33496094 C-118.90850113 146.32845536 -116.90492411 140.255786 -114.91748047 134.16479492 C-113.13909309 128.77753387 -111.06599033 123.57916029 -108.8125 118.37109375 C-107.78147571 115.8400594 -106.97472568 113.34261122 -106.23046875 110.71484375 C-105.21102401 107.12413283 -103.95898927 103.76732313 -102.48046875 100.33984375 C-97.15355983 87.87295149 -93.04545975 74.86712231 -88.87109375 61.9765625 C-87.64716343 58.47662478 -86.19217817 55.12180788 -84.73046875 51.71484375 C-83.68545044 48.93863267 -82.70570679 46.14121343 -81.73046875 43.33984375 C-81.46411621 42.58743408 -81.19776367 41.83502441 -80.92333984 41.05981445 C-79.6210889 37.36316664 -78.42143723 33.67476469 -77.35546875 29.90234375 C-72.89026333 16.37539791 -61.92108708 6.28278384 -49.73046875 -0.28515625 C-46.11798228 -1.8181473 -42.47279977 -3.1093563 -38.73046875 -4.28515625 C-26.63305305 -8.31762815 -11.19224428 -5.26788035 0 0 Z " fill="#FCFDFD" transform="translate(515.73046875,213.28515625)"/>
<path d="M0 0 C-0.9040123 4.64920613 -0.9040123 4.64920613 -1.51806641 6.89331055 C-4.63927559 20.53713731 -2.18799684 35.58826752 4.4921875 47.70703125 C5.89847684 49.90390293 7.38783258 51.95129394 9 54 C10.1446875 55.5778125 10.1446875 55.5778125 11.3125 57.1875 C14.32829286 60.3435623 17.49131276 62.44823547 21.20703125 64.703125 C21.79871094 65.13109375 22.39039063 65.5590625 23 66 C23 66.66 23 67.32 23 68 C21.43886475 68.57778198 21.43886475 68.57778198 19.84619141 69.16723633 C-1.30436094 76.99923386 -22.42625877 84.90100301 -43.5 92.9375 C-63.23839436 100.46305039 -83.01659549 107.8774994 -102.8125 115.25 C-127.49369831 124.44223958 -152.152385 133.69191377 -176.79150391 142.99633789 C-179.24641357 143.92335494 -181.70132883 144.85035716 -184.15625 145.77734375 C-185.92879654 146.44670708 -185.92879654 146.44670708 -187.7371521 147.1295929 C-195.26897916 149.9726276 -202.80447092 152.80569416 -210.34375 155.62890625 C-211.28607986 155.98180725 -212.22840973 156.33470825 -213.19929504 156.69830322 C-217.46770904 158.2963134 -221.73672864 159.8926826 -226.0065918 161.48681641 C-234.58608201 164.68889924 -234.58608201 164.68889924 -243.10546875 168.046875 C-249.71408318 170.72227206 -256.42685763 173.12270862 -263.125 175.5625 C-272.48128902 178.97732886 -281.83400782 182.39318577 -291.12890625 185.97265625 C-292.01900391 186.31490234 -292.90910156 186.65714844 -293.82617188 187.00976562 C-295.65510351 187.71340171 -297.48322674 188.41914255 -299.31054688 189.12695312 C-312.4923465 194.18364058 -325.46795363 196.64909237 -339 191 C-347.14660231 186.63883304 -352.89441652 178.8957699 -355.9375 170.25 C-358.45048466 160.26088597 -358.17664553 150.0247714 -353 141 C-342.26431667 124.28494875 -323.29102164 119.6161773 -305.57183838 113.13973999 C-300.47209224 111.2754876 -295.37703133 109.398494 -290.28125 107.5234375 C-289.24807648 107.14364243 -288.21490295 106.76384735 -287.15042114 106.37254333 C-277.12646167 102.68531118 -267.12304922 98.9443226 -257.125 95.1875 C-255.48576332 94.57200855 -253.84652182 93.95652993 -252.20727539 93.34106445 C-245.13601824 90.685269 -238.06634986 88.02526237 -230.99743652 85.36323547 C-228.04571646 84.25199945 -225.09354252 83.14197256 -222.14129639 82.03213501 C-220.13747483 81.27820884 -218.13438997 80.5223509 -216.13134766 79.76635742 C-206.25370089 76.05218823 -206.25370089 76.05218823 -201.703125 74.57421875 C-193.49447804 71.89775408 -185.4467997 68.72276701 -177.36450195 65.69116211 C-169.10790177 62.59657473 -160.86024812 59.53737781 -152.46704102 56.82739258 C-149.18712425 55.72737893 -146.0023884 54.43219527 -142.80078125 53.125 C-132.96249543 49.17321992 -122.97565836 45.60658922 -112.96386719 42.12304688 C-108.22911492 40.46599405 -103.58165143 38.66740929 -98.98046875 36.6640625 C-97 36 -97 36 -93 36 C-93 35.34 -93 34.68 -93 34 C-89.08422129 32.58087092 -85.16721282 31.16516522 -81.25 29.75 C-80.15816406 29.35425781 -79.06632812 28.95851563 -77.94140625 28.55078125 C-71.55144947 26.24434714 -65.14505967 24.02724382 -58.67797852 21.94604492 C-55.92267689 20.9726842 -53.32438588 19.81907405 -50.6875 18.5625 C-46.40416202 16.54427015 -42.06435741 14.94950039 -37.5625 13.5 C-31.98098101 11.7024905 -26.58902292 9.64480313 -21.19921875 7.3359375 C-17.28790887 5.70264327 -13.34047166 4.1835623 -9.375 2.6875 C-8.67511963 2.42074463 -7.97523926 2.15398926 -7.25415039 1.87915039 C-2.24081691 0 -2.24081691 0 0 0 Z " fill="#FBFCFC" transform="translate(626,372)"/>
<path d="M0 0 C2.63223806 5.77713895 2.38369408 11.18036851 2.375 17.4375 C2.37338867 18.63584473 2.37177734 19.83418945 2.37011719 21.06884766 C2.21753557 32.35839147 0.64036164 43.04249921 -2 54 C-2.28875 55.216875 -2.5775 56.43375 -2.875 57.6875 C-10.86521389 86.79470776 -32.38409185 113.75325097 -58.27734375 128.85986328 C-70.34981374 135.67068672 -82.51876034 140.6945112 -96 144 C-96.7324292 144.18763916 -97.4648584 144.37527832 -98.21948242 144.56860352 C-105.68349095 146.29319243 -113.05326942 146.34592483 -120.6875 146.3125 C-121.35463013 146.31034485 -122.02176025 146.3081897 -122.70910645 146.30596924 C-132.48780967 146.2552066 -141.57682325 145.83882644 -151 143 C-151.67820801 142.81195801 -152.35641602 142.62391602 -153.05517578 142.43017578 C-180.33116102 134.81615992 -204.20852829 117.62260959 -220.375 94.375 C-220.84566895 93.70001465 -221.31633789 93.0250293 -221.80126953 92.32958984 C-224.10234796 88.87053808 -225 87.25640827 -225 83 C-224.38253906 82.82984375 -223.76507813 82.6596875 -223.12890625 82.484375 C-218.13399073 81.05508411 -213.47117107 79.39428105 -208.76464844 77.20654297 C-205.46888733 75.76821275 -202.11720527 74.50907777 -198.74609375 73.26171875 C-197.30685999 72.72562669 -195.86773574 72.18924059 -194.42871094 71.65258789 C-193.6930188 71.37851105 -192.95732666 71.1044342 -192.19934082 70.822052 C-188.74675189 69.53157096 -185.30101139 68.22321689 -181.85546875 66.9140625 C-180.44557873 66.37892942 -179.03566614 65.84385581 -177.62573242 65.30883789 C-176.9051767 65.03540558 -176.18462097 64.76197327 -175.44223022 64.48025513 C-160.87665976 58.955302 -146.29063311 53.48735836 -131.6875 48.0625 C-103.19815618 37.47795833 -74.74405983 26.80128268 -46.3125 16.0625 C-45.39285461 15.71518829 -44.47320923 15.36787659 -43.5256958 15.01004028 C-41.72724373 14.33070278 -39.92888235 13.65112516 -38.13061523 12.97129822 C-36.38333891 12.31093375 -34.63578464 11.65130421 -32.88793945 10.9924469 C-28.29614477 9.25889329 -23.71419053 7.50316618 -19.14208984 5.71826172 C-18.18368698 5.34640244 -17.22528412 4.97454315 -16.23783875 4.59141541 C-14.4008756 3.8778841 -12.56596532 3.15903782 -10.73347473 2.43409729 C-9.90901352 2.11480759 -9.08455231 1.79551788 -8.23510742 1.46655273 C-7.51191818 1.18271225 -6.78872894 0.89887177 -6.04362488 0.60643005 C-4 0 -4 0 0 0 Z " fill="#FBFCFB" transform="translate(612,476)"/>
<path d="M0 0 C1.19955322 0.00193359 1.19955322 0.00193359 2.42333984 0.00390625 C8.2250486 0.09845437 12.90472681 0.93682302 18.25 3.3125 C18.25 3.9725 18.25 4.6325 18.25 5.3125 C18.99121094 5.55742187 19.73242188 5.80234375 20.49609375 6.0546875 C27.59373597 9.29644749 32.54493709 17.17541312 35.25 24.3125 C38.04311357 33.47916132 36.39597764 43.34396298 31.99609375 51.69140625 C26.95069742 59.81628154 20.65057457 65.71708519 11.43359375 68.64453125 C1.21619003 70.78830553 -8.0038368 70.41723104 -17.1953125 65.07421875 C-24.86289347 59.78663615 -29.37478902 53.37683717 -32.35546875 44.51171875 C-34.14954023 34.51110249 -33.75816944 24.7877006 -28.59765625 15.90625 C-24.62091883 10.32368415 -19.98445931 5.3454802 -13.75 2.3125 C-13.05777344 1.96574219 -12.36554687 1.61898438 -11.65234375 1.26171875 C-7.72421625 -0.02298513 -4.10773095 -0.02714173 0 0 Z " fill="#FAFBFB" transform="translate(675.75,356.6875)"/>
<path d="M0 0 C0.66 0.33 1.32 0.66 2 1 C1.360625 1.103125 0.72125 1.20625 0.0625 1.3125 C-0.618125 1.539375 -1.29875 1.76625 -2 2 C-2.33 2.99 -2.66 3.98 -3 5 C-3.9075 5.103125 -4.815 5.20625 -5.75 5.3125 C-9.01961575 6.00414949 -10.53717737 6.82134921 -13 9 C-14.32 8.34 -15.64 7.68 -17 7 C-11.40867594 4.45025268 -5.8336907 1.94456357 0 0 Z " fill="#477765" transform="translate(495,399)"/>
<path d="M0 0 C-2.54980193 3.14093249 -5.06780441 3.81247177 -8.9375 4.75 C-9.97777344 5.01296875 -11.01804687 5.2759375 -12.08984375 5.546875 C-14.8553723 5.97748079 -16.40063066 5.927004 -19 5 C-17.77023437 4.60167969 -17.77023437 4.60167969 -16.515625 4.1953125 C-15.43796875 3.84210938 -14.3603125 3.48890625 -13.25 3.125 C-12.18265625 2.77695312 -11.1153125 2.42890625 -10.015625 2.0703125 C-7.07508307 1.11460469 -7.07508307 1.11460469 -4.796875 -0.1953125 C-3 -1 -3 -1 0 0 Z " fill="#376955" transform="translate(525,390)"/>
<path d="M0 0 C0.99 0 1.98 0 3 0 C1.3833652 6.03280791 -0.16709462 9.950809 -5 14 C-3.46527032 9.27775484 -1.76054874 4.64144669 0 0 Z " fill="#DBE8E3" transform="translate(386,389)"/>
<path d="M0 0 C-0.55728913 3.34373475 -1.35173889 6.03312999 -3 9 C-3.33 7.35 -3.66 5.7 -4 4 C-5.98 4 -7.96 4 -10 4 C-6.86268382 1.90845588 -3.85464592 0 0 0 Z " fill="#C1D4CD" transform="translate(626,372)"/>
<path d="M0 0 C0.99 0.33 1.98 0.66 3 1 C2.49287967 4.71888239 1.88391785 7.73454239 0 11 C-0.66 11 -1.32 11 -2 11 C-1.34 7.37 -0.68 3.74 0 0 Z " fill="#D9E5E1" transform="translate(629,531)"/>
<path d="M0 0 C-0.639375 0.103125 -1.27875 0.20625 -1.9375 0.3125 C-2.618125 0.539375 -3.29875 0.76625 -4 1 C-4.33 1.99 -4.66 2.98 -5 4 C-9.02040985 4.69584017 -12.08263419 5.1700097 -16 4 C-13.71144298 3.13656269 -11.4198072 2.2840189 -9.125 1.4375 C-8.47402344 1.19064453 -7.82304687 0.94378906 -7.15234375 0.68945312 C-2.2265625 -1.11328125 -2.2265625 -1.11328125 0 0 Z " fill="#396F5C" transform="translate(465,412)"/>
<path d="M0 0 C0.66 0.33 1.32 0.66 2 1 C-1.3 4.63 -4.6 8.26 -8 12 C-8.66 11.67 -9.32 11.34 -10 11 C-8.89718873 9.72799029 -7.79269231 8.45744147 -6.6875 7.1875 C-6.07261719 6.47980469 -5.45773437 5.77210938 -4.82421875 5.04296875 C-3.26665665 3.29863261 -1.67341125 1.63221959 0 0 Z " fill="#1F5842" transform="translate(271,485)"/>
<path d="M0 0 C-0.33 0.99 -0.66 1.98 -1 3 C-2.98 3 -4.96 3 -7 3 C-7.33 3.66 -7.66 4.32 -8 5 C-8.99 5.33 -9.98 5.66 -11 6 C-11.66 5.34 -12.32 4.68 -13 4 C-11.39850114 3.32694982 -9.79368971 2.66177773 -8.1875 2 C-7.29417969 1.62875 -6.40085937 1.2575 -5.48046875 0.875 C-3 0 -3 0 0 0 Z " fill="#306B56" transform="translate(646,441)"/>
<path d="M0 0 C0.33 0.66 0.66 1.32 1 2 C-0.61000397 5.13950774 -2.38499232 7.63404067 -5 10 C-5.99 9.67 -6.98 9.34 -8 9 C-5.36 6.03 -2.72 3.06 0 0 Z " fill="#1B573F" transform="translate(581,581)"/>
<path d="M0 0 C2.29013653 3.4352048 2.17842973 4.985331 2 9 C1.01 9 0.02 9 -1 9 C-0.67 6.03 -0.34 3.06 0 0 Z " fill="#1E5744" transform="translate(624,377)"/>
<path d="M0 0 C2 3 2 3 1.625 5.6875 C1.41875 6.450625 1.2125 7.21375 1 8 C0.01 8.33 -0.98 8.66 -2 9 C-1.34 6.03 -0.68 3.06 0 0 Z " fill="#24624C" transform="translate(400,291)"/>
<path d="M0 0 C1.46726798 3.81489674 0.43336419 6.29011622 -1 10 C-1.66 10 -2.32 10 -3 10 C-2.49287967 6.28111761 -1.88391785 3.26545761 0 0 Z " fill="#DCE9E5" transform="translate(413,315)"/>
<path d="M0 0 C1 3 1 3 0.29296875 4.7890625 C-0.07183594 5.39492187 -0.43664062 6.00078125 -0.8125 6.625 C-1.16957031 7.23601562 -1.52664063 7.84703125 -1.89453125 8.4765625 C-3 10 -3 10 -5 11 C-3.77472971 6.94718288 -2.30119506 3.55639236 0 0 Z " fill="#CADED6" transform="translate(443,234)"/>
<path d="M0 0 C0.33 0 0.66 0 1 0 C1 2.64 1 5.28 1 8 C2.98 8.495 2.98 8.495 5 9 C4.67 9.99 4.34 10.98 4 12 C2 11.0625 2 11.0625 0 9 C-0.36475845 5.97465051 -0.22893297 3.03336186 0 0 Z " fill="#306854" transform="translate(371,706)"/>
<path d="M0 0 C0.66 0.99 1.32 1.98 2 3 C0.9024777 5.99324263 0.32317108 6.84610901 -2.625 8.25 C-3.40875 8.4975 -4.1925 8.745 -5 9 C-3.35 6.03 -1.7 3.06 0 0 Z " fill="#1D523E" transform="translate(597,559)"/>
<path d="M0 0 C1.0625 1.8125 1.0625 1.8125 2 4 C1.67 4.99 1.34 5.98 1 7 C0.34 7 -0.32 7 -1 7 C-1.33 8.32 -1.66 9.64 -2 11 C-3 9 -3 9 -2.44140625 6.8359375 C-2.15136719 6.02382813 -1.86132812 5.21171875 -1.5625 4.375 C-1.27503906 3.55773437 -0.98757813 2.74046875 -0.69140625 1.8984375 C-0.46324219 1.27195312 -0.23507812 0.64546875 0 0 Z " fill="#356C57" transform="translate(355,415)"/>
<path d="M0 0 C-0.639375 0.103125 -1.27875 0.20625 -1.9375 0.3125 C-2.618125 0.539375 -3.29875 0.76625 -4 1 C-4.33 1.99 -4.66 2.98 -5 4 C-7.64 4 -10.28 4 -13 4 C-10.56272708 2.37515139 -8.62713877 1.34310925 -5.9375 0.3125 C-5.24527344 0.04050781 -4.55304687 -0.23148437 -3.83984375 -0.51171875 C-2 -1 -2 -1 0 0 Z " fill="#4D7E6C" transform="translate(567,374)"/>
<path d="M0 0 C3.36720387 1.39332574 4.9859524 2.9789286 7 6 C4 6 4 6 1.8125 4.125 C0 2 0 2 0 0 Z " fill="#245843" transform="translate(538,205)"/>
<path d="M0 0 C2.76223278 2.76223278 2.57856291 5.20706617 3 9 C0.9375 7.3125 0.9375 7.3125 -1 5 C-0.75 2.25 -0.75 2.25 0 0 Z " fill="#316551" transform="translate(563,245)"/>
<path d="M0 0 C0.66 0.33 1.32 0.66 2 1 C1.01 2.485 1.01 2.485 0 4 C-3.625 4.6875 -3.625 4.6875 -7 5 C-4.702779 3.25728062 -2.40133271 1.60088848 0 0 Z " fill="#2C5F4A" transform="translate(553,604)"/>
<path d="M0 0 C1 4 1 4 1 8 C0.01 8.33 -0.98 8.66 -2 9 C-1.34 6.03 -0.68 3.06 0 0 Z " fill="#D2E1DC" transform="translate(380,404)"/>
<path d="M0 0 C-1.32 0.99 -2.64 1.98 -4 3 C-5.32 2.34 -6.64 1.68 -8 1 C-4.93251126 -0.86240388 -3.40254489 -1.2151946 0 0 Z " fill="#296650" transform="translate(486,405)"/>
<path d="M0 0 C1.0625 1.875 1.0625 1.875 2 4 C1.67 4.66 1.34 5.32 1 6 C-1.06640625 6.4140625 -1.06640625 6.4140625 -3.5625 6.625 C-4.38878906 6.69976562 -5.21507812 6.77453125 -6.06640625 6.8515625 C-7.02353516 6.92503906 -7.02353516 6.92503906 -8 7 C-5.38058783 5.25372522 -3.96175123 4.61277612 -1 4 C-0.67 2.68 -0.34 1.36 0 0 Z " fill="#467965" transform="translate(581,364)"/>
<path d="M0 0 C0.33 0 0.66 0 1 0 C1.25 6.625 1.25 6.625 -1 10 C-2.46726798 6.18510326 -1.43336419 3.70988378 0 0 Z " fill="#1C5E46" transform="translate(421,233)"/>
<path d="M0 0 C-1.15173355 2.46800047 -2.04783565 4.04783565 -4 6 C-4.99 5.67 -5.98 5.34 -7 5 C-2.25 0 -2.25 0 0 0 Z " fill="#14563E" transform="translate(446,203)"/>
</svg>
