<?xml version="1.0" encoding="UTF-8"?>
<svg version="1.1" xmlns="http://www.w3.org/2000/svg" width="1254" height="1254">
<path d="M0 0 C413.82 0 827.64 0 1254 0 C1254 413.82 1254 827.64 1254 1254 C840.18 1254 426.36 1254 0 1254 C0 840.18 0 426.36 0 0 Z " fill="#FDFDFD" transform="translate(0,0)"/>
<path d="M0 0 C2.11454677 0.01077351 4.22825116 -0.00000427 6.34277344 -0.01269531 C18.95587525 -0.02827938 30.73409244 1.65350089 42.79589844 5.38574219 C44.28391968 5.84533325 44.28391968 5.84533325 45.80200195 6.31420898 C54.55018654 9.11512867 62.53671518 12.67855732 70.48339844 17.26074219 C71.14388184 17.63569824 71.80436523 18.0106543 72.48486328 18.39697266 C82.7824614 24.310518 91.78790597 31.19484484 100.48339844 39.26074219 C101.31266846 40.01629395 101.31266846 40.01629395 102.15869141 40.78710938 C122.6548723 59.60583809 133.03898883 83.10969509 142.67089844 108.75537109 C145.8018659 117.06920792 149.13607398 125.28095964 152.55761719 133.47949219 C161.64113065 155.28846159 170.29227394 177.27299791 179.01647949 199.22741699 C180.86418488 203.87598999 182.71362001 208.52387377 184.56314659 213.17172241 C193.98294765 236.84370342 203.38689528 260.52199067 212.77746773 284.20558167 C213.69984888 286.53171255 214.6224555 288.85775403 215.54530144 291.18370056 C216.8217235 294.40114124 218.09716124 297.61897034 219.37231445 300.83691406 C219.74608027 301.77859436 220.11984608 302.72027466 220.50493813 303.69049072 C221.50331817 306.2117657 222.4946105 308.73569288 223.48339844 311.26074219 C223.78721876 312.02528214 224.09103909 312.78982208 224.40406609 313.57752991 C225.58638887 316.61323587 226.48339844 318.97253983 226.48339844 322.26074219 C227.12051758 321.98609131 227.75763672 321.71144043 228.4140625 321.4284668 C238.24148193 317.2586687 248.23148642 313.54939017 258.23339844 309.82324219 C259.97045548 309.17436209 261.70743508 308.52527462 263.44433594 307.87597656 C266.84824769 306.60383981 270.25245425 305.33249788 273.65698242 304.06201172 C275.26579169 303.46159907 276.87459717 302.86117628 278.48339844 302.26074219 C279.22067169 301.98558777 279.95794495 301.71043335 280.71755981 301.42694092 C289.64100096 298.09484794 298.54008625 294.70509534 307.42089844 291.26074219 C316.21341921 287.86387776 325.02821917 284.57499772 333.93652344 281.49511719 C337.03282139 280.41755094 340.10218229 279.28872802 343.17089844 278.13574219 C359.2994974 272.31287942 373.6942999 271.20194496 390.67089844 271.13574219 C391.85893066 271.1309082 393.04696289 271.12607422 394.27099609 271.12109375 C427.23449421 271.18537693 455.26167665 284.24056472 478.73339844 307.07324219 C492.57335772 321.07243834 502.20967172 338.36322143 507.48339844 357.26074219 C507.96292969 358.87335938 507.96292969 358.87335938 508.45214844 360.51855469 C513.01427628 378.72482413 512.32256586 399.48275662 506.48339844 417.26074219 C506.10603185 419.03107271 505.73089361 420.80188027 505.35839844 422.57324219 C501.64638799 435.92841021 493.33363093 448.75667837 484.48339844 459.26074219 C483.67644531 460.24171875 482.86949219 461.22269531 482.03808594 462.23339844 C472.56282302 473.37051539 460.36773671 482.40025038 447.48339844 489.26074219 C446.90702637 489.57011719 446.3306543 489.87949219 445.73681641 490.19824219 C440.82755208 492.75517591 435.88187496 494.60310363 430.60839844 496.26074219 C425.96038443 497.73707473 421.37308969 499.26840384 416.85229492 501.1027832 C411.56849569 503.23181704 406.26197528 505.29759521 400.94824219 507.35058594 C398.91787094 508.13635079 396.88751679 508.9221598 394.85717773 509.70800781 C393.80654144 510.11446533 392.75590515 510.52092285 391.6734314 510.93969727 C375.99067421 517.00803067 360.31255199 523.08712867 344.67089844 529.26074219 C344.02296326 529.51631897 343.37502808 529.77189575 342.7074585 530.03521729 C336.25692985 532.57990262 329.80898616 535.13105407 323.36351013 537.68850708 C320.71905539 538.73703505 318.07357453 539.78295635 315.42788696 540.82836914 C313.5947102 541.55392296 311.76303143 542.28325799 309.93139648 543.01269531 C308.84640869 543.44130859 307.7614209 543.86992188 306.64355469 544.31152344 C305.69101807 544.68962158 304.73848145 545.06771973 303.75708008 545.45727539 C301.48339844 546.26074219 301.48339844 546.26074219 299.48339844 546.26074219 C299.62438965 546.96755127 299.76538086 547.67436035 299.91064453 548.40258789 C307.21431891 585.5699759 311.13878041 627.45171694 303.00195312 664.85595703 C302.62952309 666.58309255 302.26966997 668.31295807 301.91796875 670.04443359 C290.2857344 727.17923172 261.67185897 777.497293 221.48339844 819.26074219 C220.35804688 820.44796875 220.35804688 820.44796875 219.20996094 821.65917969 C214.86716764 826.14377849 210.17851064 830.09050908 205.30761719 833.99121094 C203.51969388 835.42797919 201.74887832 836.8865302 200.00292969 838.37402344 C186.31112295 849.98552466 171.0771133 859.33730505 155.47167969 868.12402344 C152.91480074 869.58581474 150.41825075 871.13739699 147.92089844 872.69824219 C143.30974587 875.48564012 138.5103549 877.36067234 133.48339844 879.26074219 C131.5219088 880.06559255 129.56368868 880.87844602 127.60839844 881.69824219 C126.58488281 882.12234375 125.56136719 882.54644531 124.50683594 882.98339844 C122.62598333 883.77802221 120.75405105 884.59456735 118.89746094 885.44433594 C109.06358789 889.84218239 98.68742514 892.53171904 88.33862305 895.44165039 C85.60229603 896.22663347 82.88544991 897.060836 80.16699219 897.90527344 C76.34919843 899.05715462 72.63674783 899.82930931 68.67089844 900.32324219 C64.03238682 900.92695303 59.41377972 901.57736112 54.79589844 902.32324219 C45.26734025 903.79006266 36.1812703 904.26074219 26.48339844 904.26074219 C26.48339844 944.85074219 26.48339844 985.44074219 26.48339844 1027.26074219 C41.11683594 1027.20273438 55.75027344 1027.14472656 70.82714844 1027.08496094 C80.0875695 1027.05941884 89.34796509 1027.03514269 98.60839844 1027.01660156 C113.31291413 1026.98692411 128.01728665 1026.95202052 142.72167969 1026.88354492 C153.43044342 1026.83370001 164.1390911 1026.80144873 174.84796762 1026.79029971 C180.51798781 1026.78378288 186.18767598 1026.76847295 191.85758972 1026.7320919 C197.19606414 1026.69811557 202.53407025 1026.68769271 207.87264252 1026.69520378 C209.83017778 1026.69382999 211.78772894 1026.68390744 213.74517059 1026.66471481 C216.42292945 1026.63975078 219.09893192 1026.64584873 221.7767334 1026.6594696 C222.54718412 1026.6449054 223.31763484 1026.63034119 224.11143255 1026.61533564 C230.6180605 1026.70449104 235.3969517 1029.21134137 240.015306 1033.77426261 C244.71245046 1039.19144808 245.99867161 1043.23598811 245.86621094 1050.30371094 C245.0799378 1056.37726976 242.35042768 1061.3445806 238.10839844 1065.69824219 C232.19851325 1069.21603099 227.53228984 1070.7074552 220.65062141 1070.64664555 C219.88884946 1070.65190466 219.12707751 1070.65716377 218.34222156 1070.66258225 C215.79277151 1070.67652449 213.24383761 1070.66917617 210.69436646 1070.66188049 C208.84682449 1070.66748635 206.99928608 1070.67438907 205.15175331 1070.68247646 C200.07699836 1070.7008308 195.00239168 1070.70042969 189.92761111 1070.69689333 C184.45373163 1070.69628133 178.97989979 1070.71283734 173.50604248 1070.72706604 C162.78303078 1070.7519868 152.06006855 1070.76023059 141.33703031 1070.76190317 C132.62206816 1070.76332846 123.90712235 1070.76949172 115.19216537 1070.77900505 C94.50776066 1070.80112512 73.82336678 1070.81957952 53.13894844 1070.81800938 C52.47761612 1070.81796264 51.8162838 1070.8179159 51.13491111 1070.81786775 C47.78306448 1070.81761843 44.43121785 1070.81732131 41.07937123 1070.81701363 C40.41369141 1070.81695379 39.7480116 1070.81689396 39.06215967 1070.81683231 C37.71599365 1070.816711 36.36982762 1070.8165856 35.0236616 1070.81645613 C14.07707263 1070.81461766 -6.86937068 1070.8371427 -27.81591797 1070.87817383 C-51.35319686 1070.92426089 -74.89040319 1070.95003427 -98.42773354 1070.94728416 C-110.88896115 1070.94628765 -123.35002446 1070.95455518 -135.81121445 1070.98681831 C-146.41946528 1071.01410793 -157.02747732 1071.02068014 -167.63574801 1071.00029004 C-173.04859108 1070.99048167 -178.46097577 1070.9903691 -183.87377548 1071.01634979 C-188.82968089 1071.03989298 -193.78476315 1071.03570592 -198.74064805 1071.0094974 C-200.53264994 1071.00488078 -202.32471273 1071.01038509 -204.11664282 1071.02707762 C-221.43848085 1071.17774048 -221.43848085 1071.17774048 -228.51660156 1064.26074219 C-233.8334789 1058.67120447 -234.92833102 1053.49991208 -234.76660156 1045.97949219 C-234.17633874 1039.56038395 -231.40420355 1035.4663532 -226.51660156 1031.26074219 C-221.71438093 1027.40584515 -217.96913289 1026.69064216 -211.97451782 1026.77972412 C-211.12817949 1026.77630642 -210.28184115 1026.77288872 -209.4098562 1026.76936746 C-206.58132103 1026.76279251 -203.75374033 1026.78475811 -200.92529297 1026.80664062 C-198.89487734 1026.80776919 -196.86446009 1026.80713507 -194.83404541 1026.80487061 C-189.32616879 1026.80372288 -183.81864055 1026.82724204 -178.3108449 1026.85516644 C-172.55330706 1026.88017007 -166.79576125 1026.88252128 -161.03817749 1026.88726807 C-150.13726554 1026.89970086 -139.23651403 1026.93252671 -128.33567274 1026.97266603 C-113.60405086 1027.02573372 -98.87238511 1027.04732674 -84.14069176 1027.0706749 C-60.93254151 1027.10828778 -37.72472985 1027.18797676 -14.51660156 1027.26074219 C-14.51660156 986.67074219 -14.51660156 946.08074219 -14.51660156 904.26074219 C-19.46660156 903.93074219 -24.41660156 903.60074219 -29.51660156 903.26074219 C-32.3123953 902.96400786 -35.10592194 902.64087757 -37.89160156 902.26074219 C-39.13683594 902.09574219 -40.38207031 901.93074219 -41.66503906 901.76074219 C-44.51660156 901.26074219 -44.51660156 901.26074219 -45.51660156 900.26074219 C-46.96865143 899.97651115 -48.42920014 899.73572702 -49.89160156 899.51074219 C-94.63199777 891.66664675 -136.41873383 869.59791123 -171.51660156 841.26074219 C-172.05430176 840.82745605 -172.59200195 840.39416992 -173.14599609 839.94775391 C-187.58392018 828.20070803 -201.17541086 815.03865734 -212.51660156 800.26074219 C-213.3891546 799.17543702 -214.26431504 798.09222472 -215.14160156 797.01074219 C-224.24194174 785.73001271 -232.2552644 773.80573526 -239.51660156 761.26074219 C-244.94993408 761.83111157 -249.49794921 763.1912007 -254.55175781 765.22558594 C-255.32720444 765.53059021 -256.10265106 765.83559448 -256.90159607 766.14984131 C-258.5825363 766.81213763 -260.2621052 767.47792292 -261.94042969 768.14682007 C-264.62319716 769.2158128 -267.30959596 770.27517617 -269.99707031 771.33227539 C-276.86315281 774.03553269 -283.72238175 776.75601924 -290.58172607 779.47631836 C-296.73129928 781.91460049 -302.88321121 784.34681176 -309.03805542 786.77175903 C-311.9422713 787.9188828 -314.84287769 789.07479727 -317.7434082 790.23120117 C-328.53434445 794.50479523 -339.30162706 798.26506649 -350.51660156 801.26074219 C-351.75603516 801.62401611 -351.75603516 801.62401611 -353.02050781 801.99462891 C-360.19146095 803.91302641 -367.64840487 803.61014112 -375.01660156 803.57324219 C-375.72803314 803.57208405 -376.43946472 803.5709259 -377.17245483 803.56973267 C-387.90138624 803.53513442 -398.0745788 802.90784375 -408.51660156 800.26074219 C-410.01707031 799.91849609 -410.01707031 799.91849609 -411.54785156 799.56933594 C-439.47496267 792.70522857 -465.05756525 773.31069188 -480.39941406 749.12744141 C-483.8391136 743.38007632 -486.72867235 737.34472321 -489.51660156 731.26074219 C-490.02030273 730.18880615 -490.02030273 730.18880615 -490.53417969 729.09521484 C-497.18195027 714.65728372 -498.9997361 700.08978351 -499.01660156 684.32324219 C-499.02091187 683.63012939 -499.02522217 682.9370166 -499.02966309 682.22290039 C-499.05532934 672.58950058 -497.94504424 663.59747714 -495.51660156 654.26074219 C-495.32340332 653.51590576 -495.13020508 652.77106934 -494.93115234 652.00366211 C-489.54175518 632.68533002 -478.29196286 615.63006599 -464.51660156 601.26074219 C-463.70835937 600.37773438 -462.90011719 599.49472656 -462.06738281 598.58496094 C-457.03273545 593.26433958 -451.82246809 588.76147517 -445.82910156 584.57324219 C-445.24314209 584.15824463 -444.65718262 583.74324707 -444.0534668 583.31567383 C-432.4261726 575.48025335 -419.341921 570.16141139 -406.27215576 565.27575684 C-402.03467222 563.69149447 -397.80797907 562.07873939 -393.57910156 560.47167969 C-392.68838959 560.13414673 -391.79767761 559.79661377 -390.87997437 559.44885254 C-384.15928678 556.89846308 -377.45875613 554.29908601 -370.76660156 551.67480469 C-369.78538834 551.29015045 -368.80417511 550.90549622 -367.79322815 550.50918579 C-362.86760692 548.57630389 -357.94464487 546.63686154 -353.02416992 544.69091797 C-344.50502626 541.32967835 -335.98863765 538.02125028 -327.33300781 535.02636719 C-325.96842657 534.54537746 -324.60399962 534.0639497 -323.23974609 533.58203125 C-320.81065041 532.72468527 -318.38181644 531.91850143 -315.92626953 531.13476562 C-310.39154161 529.18750234 -307.18419393 527.71311382 -304.42675781 522.38183594 C-303.74712253 520.69143293 -303.10639617 518.98454867 -302.51660156 517.26074219 C-302.05253906 516.05546875 -301.58847656 514.85019531 -301.11035156 513.60839844 C-300.56894531 511.98224609 -300.56894531 511.98224609 -300.01660156 510.32324219 C-298.23738254 505.17403824 -296.21274543 500.29007404 -293.89160156 495.3671875 C-292.3778749 491.94732635 -291.0758719 488.47073612 -289.79394531 484.95996094 C-286.8862269 477.10827003 -283.71207701 469.38694074 -280.45562744 461.67456055 C-269.49006876 435.67652881 -259.10485564 409.46130258 -248.95410156 383.13574219 C-248.59222748 382.19728455 -248.23035339 381.2588269 -247.85751343 380.29193115 C-247.13253903 378.41170165 -246.40758867 376.53146288 -245.68266296 374.6512146 C-237.29562794 352.89898723 -228.82162985 331.21884091 -219.70410156 309.76074219 C-211.58023067 290.63755266 -204.01088733 271.31862603 -196.54522705 251.93054199 C-194.7981788 247.39607426 -193.04582982 242.86365564 -191.29394531 238.33105469 C-189.15080684 232.78534764 -187.0081537 227.23945574 -184.86791992 221.69262695 C-179.83322746 208.6470462 -174.76280628 195.61575636 -169.67169189 182.59210205 C-165.6001503 172.17609692 -161.54122522 161.75533714 -157.50097656 151.32714844 C-156.86281509 149.68009666 -156.86281509 149.68009666 -156.21176147 147.99977112 C-154.13511882 142.63911652 -152.05974949 137.27797226 -149.98583984 131.91625977 C-146.27795784 122.33643424 -142.54981092 112.76705067 -138.71240234 103.23828125 C-137.63024083 100.54370349 -136.56923964 97.84195405 -135.51660156 95.13574219 C-120.38111175 57.54514043 -93.46857958 26.87621806 -55.8515625 10.72412109 C-50.47473677 8.52451057 -45.00060542 6.67066984 -39.45410156 4.94824219 C-38.30518433 4.58436401 -38.30518433 4.58436401 -37.13305664 4.21313477 C-24.98875019 0.62726242 -12.57518189 -0.07593003 0 0 Z " fill="#034730" transform="translate(627.5166015625,72.7392578125)"/>
<path d="M0 0 C0 4.06921719 -1.88520236 6.8701831 -3.75 10.375 C-7.36788842 17.38594978 -10.08311686 24.32297793 -12 32 C-12.26055176 32.95700806 -12.26055176 32.95700806 -12.52636719 33.93334961 C-18.47560409 57.47662687 -13.20741821 83.46141949 -1.109375 104.17822266 C8.73210859 120.3395674 23.39727988 139.68142903 42 146 C42 146.66 42 147.32 42 148 C41.10539063 148.31453125 40.21078125 148.6290625 39.2890625 148.953125 C38.07992187 149.38109375 36.87078125 149.8090625 35.625 150.25 C33.84996094 150.87648438 33.84996094 150.87648438 32.0390625 151.515625 C29.15759718 152.55654538 26.31044917 153.66442352 23.46875 154.80932617 C17.81063313 157.07995024 12.13700266 159.30984618 6.4609375 161.53515625 C4.19098588 162.42590968 1.92104833 163.31669898 -0.34887695 164.20751953 C-1.53373688 164.67240784 -2.7185968 165.13729614 -3.93936157 165.61627197 C-23.40892915 173.25604317 -42.86986616 180.91687691 -62.3125 188.625 C-87.18236878 198.48300898 -112.08807139 208.24885099 -137 218 C-138.9926791 218.78010219 -140.98535494 219.56021274 -142.97802734 220.34033203 C-153.48584147 224.45388284 -163.99434718 228.565664 -174.5032959 232.67631531 C-181.16253779 235.28113523 -187.82157694 237.88647278 -194.48046875 240.4921875 C-195.43022583 240.86384033 -196.37998291 241.23549316 -197.35852051 241.6184082 C-200.23901727 242.74559628 -203.11950953 243.87279585 -206 245 C-217.4411584 249.4771963 -228.8824142 253.95414268 -240.32421875 258.4296875 C-250.85472854 262.54887602 -261.38459293 266.66971152 -271.91394043 270.79187012 C-274.0246765 271.61818058 -276.13543607 272.44443102 -278.24621582 273.27062988 C-285.00488921 275.91612461 -291.76314795 278.56267447 -298.52090454 281.21051025 C-300.66415532 282.05013345 -302.80752105 282.88946333 -304.95101929 283.72845459 C-316.46319906 288.23478429 -327.96518815 292.76610628 -339.44921875 297.34375 C-340.47279984 297.7504895 -341.49638092 298.157229 -342.55097961 298.57629395 C-346.99055871 300.35044562 -351.39938253 302.1563574 -355.75537109 304.12768555 C-359.59156173 305.85453975 -363.4754863 307.26970187 -367.46484375 308.61328125 C-379.3312281 312.70345116 -390.92624788 317.49187328 -402.5625 322.1875 C-405.93206286 323.54387648 -409.30203323 324.89923144 -412.67234802 326.2537384 C-414.75088011 327.08943402 -416.8289245 327.92634406 -418.90638733 328.76469421 C-424.24638896 330.91536272 -429.60207259 332.99919154 -435 335 C-436.6277221 335.63894166 -438.25318025 336.28372145 -439.875 336.9375 C-440.71804688 337.27652344 -441.56109375 337.61554688 -442.4296875 337.96484375 C-443.70199219 338.47724609 -443.70199219 338.47724609 -445 339 C-446.66648759 339.66711419 -448.33315321 340.33378381 -450 341 C-450.825 341.33 -451.65 341.66 -452.5 342 C-460 345 -460 345 -462.53125 346.01171875 C-464.09447896 346.63750503 -465.65706278 347.26490735 -467.21875 347.89453125 C-471.21690826 349.50337918 -475.22238067 351.08896293 -479.24609375 352.6328125 C-489.09571857 356.39460394 -489.09571857 356.39460394 -498.75 360.625 C-502.35548705 362.31354503 -505.96113773 363.72534507 -509.7265625 365.015625 C-521.15157318 369.05577802 -532.36898899 373.64069095 -543.625 378.125 C-547.22395753 379.55574188 -550.82325215 380.98563328 -554.4225769 382.41545105 C-556.77239457 383.34894954 -559.122107 384.28271295 -561.47171021 385.2167511 C-569.68081207 388.47942269 -577.89824456 391.71962215 -586.125 394.9375 C-598.05680775 399.60813477 -609.95254496 404.36777685 -621.84228516 409.14428711 C-649.27829941 420.15919022 -675.87126874 428.58192841 -704.6640625 416.45703125 C-712.28668399 412.99082124 -718.81027314 408.6177389 -725 403 C-726.26457031 401.87464844 -726.26457031 401.87464844 -727.5546875 400.7265625 C-737.59043333 391.30089241 -743.83500043 380.05145615 -748 367 C-748.24621094 366.22914063 -748.49242187 365.45828125 -748.74609375 364.6640625 C-753.5886028 345.62799242 -749.7551615 324.61441962 -740.13232422 307.86621094 C-726.48719518 285.37734367 -706.54482086 275.27506954 -682.72921753 266.3581543 C-677.98170584 264.57994574 -673.24109431 262.783515 -668.5 260.98828125 C-667.57150742 260.63710236 -666.64301483 260.28592346 -665.68638611 259.92410278 C-658.90625098 257.35549828 -652.15859037 254.71986465 -645.4375 252 C-634.98755181 247.77812425 -624.50054221 243.65651902 -614 239.5625 C-613.13881561 239.22669922 -612.27763123 238.89089844 -611.39035034 238.54492188 C-595.72586787 232.43894727 -580.04959729 226.3633808 -564.37313843 220.28823853 C-536.43814642 209.46202731 -508.51987194 198.59495032 -480.66079712 187.57467651 C-467.25644793 182.2725475 -453.83075481 177.02651295 -440.3968811 171.79968262 C-431.63907335 168.39135278 -422.88695784 164.97149025 -414.16796875 161.46484375 C-413.13689499 161.05036736 -413.13689499 161.05036736 -412.08499146 160.6275177 C-408.93246451 159.35889419 -405.78225406 158.08505554 -402.63476562 156.80395508 C-396.3813448 154.27618057 -390.11693085 151.96718282 -383.6862793 149.9284668 C-380.9047135 148.96706584 -378.28587489 147.81703436 -375.625 146.5625 C-370.29614044 144.0520835 -364.83592168 142.12094827 -359.27734375 140.18359375 C-355.86722227 138.95204809 -352.60666362 137.53828896 -349.31640625 136.0234375 C-345.4491479 134.31480059 -341.48628383 132.85735935 -337.53515625 131.35546875 C-331.98784497 129.22848862 -326.47982537 127.0058198 -320.96728516 124.79052734 C-320.31808105 124.52965332 -319.66887695 124.2687793 -319 124 C-318.27731934 123.70947754 -317.55463867 123.41895508 -316.81005859 123.11962891 C-308.33955967 119.72209259 -299.84038863 116.39788742 -291.34375 113.06640625 C-285.26777117 110.68224499 -279.19839323 108.28355174 -273.140625 105.85351562 C-270.27044803 104.70911112 -267.38698758 103.60122206 -264.5 102.5 C-260.67211126 101.0349504 -256.85842909 99.54579707 -253.0625 98 C-248.03205016 95.96658765 -242.91822059 94.19729358 -237.78515625 92.44140625 C-234.74805816 91.33999979 -231.84090138 90.03009687 -228.91015625 88.671875 C-222.50437307 85.72352685 -215.96127061 83.20097774 -209.375 80.6875 C-206.61137739 79.62656368 -203.84870808 78.56315273 -201.0859375 77.5 C-200.35936951 77.22077194 -199.63280151 76.94154388 -198.88421631 76.65385437 C-190.77510884 73.53498805 -182.68507314 70.367572 -174.59405518 67.20214844 C-159.62215108 61.34598191 -144.6333141 55.53599354 -129.62426758 49.77572632 C-115.57066066 44.38174347 -101.53310401 38.94708426 -87.5 33.5 C-27.09320701 10.05818087 -27.09320701 10.05818087 0 0 Z " fill="#FCFCFC" transform="translate(923,411)"/>
<path d="M0 0 C1.15242187 -0.00128906 2.30484375 -0.00257812 3.4921875 -0.00390625 C4.68585938 -0.00003906 5.87953125 0.00382812 7.109375 0.0078125 C8.92308594 0.00201172 8.92308594 0.00201172 10.7734375 -0.00390625 C11.92070313 -0.00261719 13.06796875 -0.00132813 14.25 0 C15.8282959 0.00169189 15.8282959 0.00169189 17.43847656 0.00341797 C19.859375 0.1328125 19.859375 0.1328125 20.859375 1.1328125 C22.62502849 1.4355816 24.39745685 1.69905732 26.171875 1.9453125 C45.77329833 5.18921002 63.03042464 15.20035375 77.859375 28.1328125 C78.52839844 28.70128906 79.19742187 29.26976562 79.88671875 29.85546875 C91.52424478 40.5619927 99.77519607 55.34247379 104.859375 70.1328125 C109.49842062 83.80916949 109.49842062 83.80916949 115.328125 96.99609375 C116.90185934 100.21984037 118.08071272 103.42513861 119.234375 106.8203125 C120.78044018 111.24493749 122.42249809 115.51913346 124.421875 119.7578125 C126.18036375 123.49391632 127.60062065 127.19983708 128.859375 131.1328125 C130.41884399 135.9998649 132.30891842 140.5646295 134.515625 145.171875 C135.63147944 147.63064728 136.6542134 150.08891453 137.64892578 152.59765625 C139.92030879 158.29865372 142.24293677 163.97792633 144.5703125 169.65625 C153.61221756 191.75385174 162.62549201 213.85347632 171.20874023 236.13378906 C174.64488535 245.04848204 178.17281014 253.91761165 181.796875 262.7578125 C184.91560436 270.36902412 188.03208041 277.97969192 191.046875 285.6328125 C191.33876709 286.36322754 191.63065918 287.09364258 191.93139648 287.84619141 C193.07205879 290.76591723 193.859375 292.96765598 193.859375 296.1328125 C184.66815598 299.58304311 175.47654902 303.03223885 166.28467941 306.48073578 C164.04931346 307.31939764 161.81397787 308.15814038 159.5786438 308.99688721 C144.14534777 314.78746167 128.71147339 320.57561775 113.24856567 326.28677368 C94.59417156 333.17851245 76.03463788 340.31544345 57.47052002 347.44606018 C49.70942943 350.42591093 41.94369886 353.39346398 34.17578125 356.35546875 C33.02386795 356.79471176 31.87195465 357.23395477 30.68513489 357.68650818 C28.34843372 358.5774854 26.01172819 359.46845116 23.67501831 360.35940552 C5.11854203 367.43582918 -13.42782878 374.53762749 -31.953125 381.6953125 C-33.32783463 382.22621994 -33.32783463 382.22621994 -34.73031616 382.76785278 C-46.98582807 387.50156941 -46.98582807 387.50156941 -59.19555664 392.35180664 C-61.9373996 393.45274245 -64.69379321 394.51409146 -67.453125 395.5703125 C-68.55914063 395.99441406 -69.66515625 396.41851562 -70.8046875 396.85546875 C-71.90554688 397.27699219 -73.00640625 397.69851563 -74.140625 398.1328125 C-93.47860811 405.54931816 -93.47860811 405.54931816 -112.734375 413.17578125 C-118.96717229 415.65473472 -125.24359966 418.02374247 -131.5078125 420.421875 C-144.13710972 425.22810608 -144.13710972 425.22810608 -156.515625 430.6328125 C-161.28643846 432.83369409 -166.11132186 434.50171201 -171.109375 436.10546875 C-175.18341181 437.48623123 -179.10768569 439.15622452 -183.0625 440.84375 C-186.29403246 442.19705674 -189.5522334 443.45352103 -192.828125 444.6953125 C-196.42050244 446.06262401 -199.96142364 447.46386435 -203.453125 449.0703125 C-207.90676468 451.08961508 -212.46159423 452.78890736 -217.04614258 454.48657227 C-224.09995977 457.10243383 -231.12046541 459.80309426 -238.140625 462.5078125 C-239.3174585 462.9610791 -240.49429199 463.4143457 -241.70678711 463.88134766 C-244.51827819 464.96462121 -247.32956604 466.04841819 -250.140625 467.1328125 C-249.54889682 462.66043861 -248.39625154 458.91468886 -246.6484375 454.76171875 C-246.39105804 454.14409668 -246.13367859 453.52647461 -245.86849976 452.89013672 C-245.30473709 451.53868647 -244.73818579 450.18839693 -244.16918945 448.83914185 C-242.57531954 445.05746907 -241.00424822 441.26630557 -239.4296875 437.4765625 C-238.91858429 436.2486776 -238.91858429 436.2486776 -238.39715576 434.99598694 C-234.07247759 424.5919007 -229.85774242 414.14334409 -225.640625 403.6953125 C-225.23146851 402.68229065 -224.82231201 401.6692688 -224.40075684 400.62554932 C-219.14647227 387.6153704 -213.91530106 374.59617243 -208.71514893 361.56427002 C-203.06350766 347.40291392 -197.35795379 333.26337368 -191.65155029 319.12402344 C-176.43517447 281.42006147 -161.30532692 243.68253027 -146.328125 205.8828125 C-145.66870911 204.21860764 -145.66870911 204.21860764 -144.99597168 202.52078247 C-140.53673666 191.26411704 -136.08628566 180.00410153 -131.66015625 168.734375 C-130.96918976 166.9768751 -130.27819136 165.21938775 -129.5871582 163.46191406 C-128.33621862 160.28028282 -127.08907852 157.09720313 -125.84448242 153.91308594 C-123.13247571 146.99815433 -120.34089871 140.1474999 -117.19506836 133.41503906 C-113.7132044 125.87892785 -111.00588955 118.0477957 -108.33422852 110.19677734 C-106.88043077 105.98587774 -105.14012499 102.12126102 -103.140625 98.1328125 C-102.23029323 95.63905518 -101.35917892 93.14846439 -100.515625 90.6328125 C-93.54072378 70.50101667 -85.94825905 52.59344174 -72.140625 36.1328125 C-71.3775 35.1221875 -70.614375 34.1115625 -69.828125 33.0703125 C-52.86776594 14.53224562 -25.55781107 0.02728037 0 0 Z " fill="#FCFCFC" transform="translate(621.140625,113.8671875)"/>
<path d="M0 0 C8.00001584 29.32030347 8.31178141 61.17595622 3 91 C2.83902832 91.9187793 2.67805664 92.83755859 2.51220703 93.78417969 C-7.95972303 151.50553869 -40.91584813 210.06766391 -89 245 C-90.26501779 245.96523583 -91.52926708 246.93147923 -92.79296875 247.8984375 C-120.09949906 268.50055912 -153.90705665 285.68906252 -187.61621094 292.484375 C-190.46595357 293.10078799 -193.27751151 293.8374636 -196.1015625 294.5625 C-212.92221177 298.60786907 -229.16985693 299.5985747 -246.4375 299.625 C-247.99739655 299.63521179 -247.99739655 299.63521179 -249.58880615 299.64562988 C-269.1438481 299.71891741 -288.25236789 297.29605666 -307.125 292.0625 C-308.06891602 291.80871582 -309.01283203 291.55493164 -309.98535156 291.29345703 C-317.4796514 289.23823709 -324.74126974 286.77791512 -332 284 C-333.81233649 283.37452602 -335.62483134 282.74951066 -337.4375 282.125 C-358.12113656 274.51895342 -377.44631937 263.22225294 -395 250 C-396.41345703 248.93652344 -396.41345703 248.93652344 -397.85546875 247.8515625 C-419.03787245 231.35016693 -436.96543092 211.75805922 -452.1875 189.75 C-453.0542334 188.49727295 -453.0542334 188.49727295 -453.93847656 187.21923828 C-454.7327002 186.05110596 -454.7327002 186.05110596 -455.54296875 184.859375 C-456.2548938 183.81475098 -456.2548938 183.81475098 -456.98120117 182.74902344 C-458 181 -458 181 -458 179 C-457.41943344 178.77529022 -456.83886688 178.55058044 -456.2407074 178.31906128 C-450.1230542 175.95101693 -444.00586044 173.58178862 -437.88891602 171.21191406 C-435.61494186 170.33108486 -433.34085602 169.4505439 -431.06665039 168.5703125 C-419.66782298 164.15818665 -408.2761508 159.73478849 -396.93676758 155.171875 C-393.35272323 153.74171349 -389.74826489 152.38995451 -386.125 151.0625 C-380.47037589 148.96998744 -374.88024901 146.75098817 -369.3125 144.4375 C-359.9212555 140.53606445 -350.47631816 136.85681265 -340.875 133.5 C-335.69562416 131.66861849 -330.74357768 129.58203058 -325.7734375 127.25 C-321.67304799 125.40193712 -317.47316276 123.84311701 -313.265625 122.2578125 C-310.08159786 121.03142884 -306.94884408 119.71799862 -303.8125 118.375 C-299.4510008 116.53041338 -295.13214137 115.04992996 -290.546875 113.87109375 C-288.28680701 113.09809504 -286.35692972 112.1948296 -284.2421875 111.1015625 C-280.07071447 108.96460935 -275.81452316 107.41867185 -271.375 105.9375 C-266.36903835 104.25845415 -261.69928696 102.44336145 -257 100 C-255.59287505 99.39401188 -254.17609986 98.80987624 -252.75 98.25 C-251.46996094 97.74726562 -251.46996094 97.74726562 -250.1640625 97.234375 C-249.11992188 96.82703125 -248.07578125 96.4196875 -247 96 C-245.59104769 95.44295651 -244.18220175 94.88564392 -242.7734375 94.328125 C-236.01932301 91.66686878 -229.2901062 89.03270542 -222.375 86.8125 C-218.37932697 85.52622169 -214.81997567 83.97065369 -211.125 82 C-207.58777417 80.33542314 -203.85945282 79.2615726 -200.125 78.125 C-197.67864751 77.2443131 -195.57511672 76.31003266 -193.28417969 75.12133789 C-189.37687654 73.14778295 -185.41555549 71.4925011 -181.328125 69.93359375 C-180.60679382 69.65459732 -179.88546265 69.37560089 -179.14227295 69.08815002 C-176.84625682 68.20089609 -174.54824957 67.31895032 -172.25 66.4375 C-169.27548625 65.29180301 -166.30179524 64.14397804 -163.328125 62.99609375 C-162.54233063 62.69310867 -161.75653625 62.3901236 -160.94692993 62.07795715 C-150.13941207 57.9050379 -139.36313217 53.6521879 -128.58276367 49.40975952 C-122.93344544 47.18684423 -117.28310308 44.96653604 -111.6328125 42.74609375 C-110.53616272 42.31508865 -109.43951294 41.88408356 -108.30963135 41.4400177 C-104.91478046 40.10577839 -101.51989595 38.77162466 -98.125 37.4375 C-96.93652466 36.9704364 -95.74804932 36.5033728 -94.52355957 36.02215576 C-81.63626699 30.95795931 -68.74750249 25.89760993 -55.8515625 20.85546875 C-54.2998082 20.24870552 -54.2998082 20.24870552 -52.71670532 19.62968445 C-47.90164359 17.74720059 -43.08615966 15.8658071 -38.27001953 13.98608398 C-36.52894996 13.30588157 -34.78790129 12.62562569 -33.046875 11.9453125 C-32.21860199 11.6222261 -31.39032898 11.29913971 -30.53695679 10.96626282 C-26.13697392 9.24544431 -21.74928926 7.49817252 -17.37304688 5.71777344 C-16.45452942 5.34530487 -15.53601196 4.9728363 -14.58966064 4.58908081 C-12.83059287 3.87419226 -11.07329053 3.15493935 -9.3180542 2.43069458 C-8.53279358 2.11180267 -7.74753296 1.79291077 -6.93847656 1.46435547 C-5.90330902 1.03919144 -5.90330902 1.03919144 -4.847229 0.60543823 C-3 0 -3 0 0 0 Z " fill="#FCFCFC" transform="translate(886,636)"/>
<path d="M0 0 C2.43820545 1.89679125 4.742006 3.86783815 7.0234375 5.94921875 C7.631875 6.46613281 8.2403125 6.98304688 8.8671875 7.515625 C20.24311602 17.83152381 28.85795193 34.70768942 30.31298828 49.99047852 C30.42391199 53.12792817 30.43325183 56.24762639 30.3984375 59.38671875 C30.41003906 60.42892578 30.42164063 61.47113281 30.43359375 62.54492188 C30.36294757 81.53696925 22.07726729 99.00182513 9.2421875 112.82421875 C1.82800856 119.92512253 -6.69488222 124.72486426 -15.9765625 128.94921875 C-17.33007812 129.68205078 -17.33007812 129.68205078 -18.7109375 130.4296875 C-31.73770849 136.71422432 -50.28521135 136.01986635 -63.9765625 131.94921875 C-66.5078125 131.01953125 -66.5078125 131.01953125 -68.4765625 130.07421875 C-70.69081934 129.02455374 -72.87896802 127.98804666 -75.15625 127.08203125 C-92.23918803 120.21238001 -104.68183752 105.55032093 -112.2890625 89.11328125 C-113.25675103 86.74386741 -114.14088501 84.36781975 -114.9765625 81.94921875 C-115.3684375 80.91796875 -115.7603125 79.88671875 -116.1640625 78.82421875 C-121.35833665 60.44447945 -117.32234759 39.4368479 -108.33203125 22.9296875 C-96.17081394 3.39493211 -78.61434734 -8.12544687 -56.5625 -13.65625 C-36.41929837 -16.7294575 -16.64348821 -11.46697022 0 0 Z " fill="#FBFCFB" transform="translate(1065.9765625,399.05078125)"/>
<path d="M0 0 C0.66 0.66 1.32 1.32 2 2 C0.37660195 3.70884005 -1.29319053 5.37446717 -3 7 C-3.66 7 -4.32 7 -5 7 C-5.185625 7.845625 -5.37125 8.69125 -5.5625 9.5625 C-7.45794692 14.09509046 -10.40039022 16.74687672 -14 20 C-14.99 19.67 -15.98 19.34 -17 19 C-11.66661098 12.2838805 -6.21830287 5.91331799 0 0 Z " fill="#144D39" transform="translate(529,112)"/>
<path d="M0 0 C0.66 0.33 1.32 0.66 2 1 C-1.05844546 4.52897553 -3.52350373 5.77115789 -8 7 C-9.7325 7.556875 -9.7325 7.556875 -11.5 8.125 C-14.83422092 8.95855523 -17.58356737 9.16665525 -21 9 C-17.74581742 6.83054495 -14.75651669 5.77139294 -11.0625 4.5 C-6.27058856 2.87915198 -6.27058856 2.87915198 -1.68359375 0.78125 C-1.12800781 0.5234375 -0.57242188 0.265625 0 0 Z " fill="#2B5D4A" transform="translate(542,513)"/>
<path d="M0 0 C0.66 0.33 1.32 0.66 2 1 C1.360625 1.103125 0.72125 1.20625 0.0625 1.3125 C-0.618125 1.539375 -1.29875 1.76625 -2 2 C-2.33 2.99 -2.66 3.98 -3 5 C-7.47778713 7.73380688 -12.74819271 9.74381428 -18 10 C-18.66 9.34 -19.32 8.68 -20 8 C-19.05898438 7.67386719 -18.11796875 7.34773437 -17.1484375 7.01171875 C-15.90320313 6.57472656 -14.65796875 6.13773438 -13.375 5.6875 C-12.14523437 5.25824219 -10.91546875 4.82898438 -9.6484375 4.38671875 C-5.99196744 3.07700965 -5.99196744 3.07700965 -2.6640625 1.26953125 C-1.78492188 0.85058594 -0.90578125 0.43164062 0 0 Z " fill="#14513A" transform="translate(475,539)"/>
<path d="M0 0 C0.33 0 0.66 0 1 0 C3.02460079 8.90824348 1.03957555 17.92084891 -3 26 C-4.56992906 21.96004922 -3.47955691 18.21038174 -2.625 14.125 C-2.34585714 12.73187033 -2.0672037 11.3386425 -1.7890625 9.9453125 C-1.6540332 9.28047852 -1.51900391 8.61564453 -1.37988281 7.93066406 C-0.86155906 5.29640684 -0.42381164 2.65090026 0 0 Z " fill="#316653" transform="translate(890,714)"/>
<path d="M0 0 C1.19908285 3.46848797 0.78945844 5.59994812 -0.3125 9.0625 C-0.57675781 9.91972656 -0.84101563 10.77695312 -1.11328125 11.66015625 C-2 14 -2 14 -4 17 C-4.66 17 -5.32 17 -6 17 C-4.13236819 11.27789404 -2.14710968 5.62338249 0 0 Z " fill="#205A47" transform="translate(417,360)"/>
<path d="M0 0 C-1 3 -1 3 -3.6875 4.75 C-7.37430684 6.14124787 -9.24250465 5.98410592 -13 5 C-8.94191935 2.2946129 -4.95110601 0 0 0 Z " fill="#225E48" transform="translate(427,559)"/>
<path d="M0 0 C0.33 0.66 0.66 1.32 1 2 C-3.873261 3.5912689 -7.80790596 4.21192221 -13 4 C-10.56272708 2.37515139 -8.62713877 1.34310925 -5.9375 0.3125 C-5.24527344 0.04050781 -4.55304687 -0.23148437 -3.83984375 -0.51171875 C-2 -1 -2 -1 0 0 Z " fill="#2B6450" transform="translate(588,497)"/>
<path d="M0 0 C1.57359759 4.72079276 0.52260317 7.89208127 -1.5625 12.3125 C-2.2740625 13.6428125 -2.2740625 13.6428125 -3 15 C-3.66 15 -4.32 15 -5 15 C-1.92482916 4.44191344 -1.92482916 4.44191344 0 0 Z " fill="#215A46" transform="translate(370,478)"/>
<path d="M0 0 C0.53625 0.226875 1.0725 0.45375 1.625 0.6875 C1.295 1.3475 0.965 2.0075 0.625 2.6875 C-3.82000224 4.02100067 -7.7068831 4.97925731 -12.375 4.6875 C-11.04166667 4.02083333 -9.70833333 3.35416667 -8.375 2.6875 C-7.385 2.130625 -6.395 1.57375 -5.375 1 C-2.375 -0.3125 -2.375 -0.3125 0 0 Z " fill="#1E5943" transform="translate(427.375,770.3125)"/>
<path d="M0 0 C-2.06139645 2.36678851 -3.50912627 3.8281942 -6.5 4.875 C-9.34465628 5.01723281 -10.54811556 4.34022497 -13 3 C-11.21189234 2.30329584 -9.41937948 1.61788811 -7.625 0.9375 C-6.62726562 0.55464844 -5.62953125 0.17179688 -4.6015625 -0.22265625 C-2 -1 -2 -1 0 0 Z " fill="#306553" transform="translate(544,514)"/>
<path d="M0 0 C0.66 0.66 1.32 1.32 2 2 C1.625 5.125 1.625 5.125 1 8 C-0.32 8.33 -1.64 8.66 -3 9 C-2.01 6.03 -1.02 3.06 0 0 Z " fill="#25614B" transform="translate(346,537)"/>
<path d="M0 0 C3.3 1.65 6.6 3.3 10 5 C10 5.99 10 6.98 10 8 C6.37 6.02 2.74 4.04 -1 2 C-0.67 1.34 -0.34 0.68 0 0 Z " fill="#114F38" transform="translate(1076,358)"/>
<path d="M0 0 C-2.29149113 2.7321625 -3.64386075 3.90028101 -7.125 4.875 C-8.07375 4.91625 -9.0225 4.9575 -10 5 C-10.66 4.34 -11.32 3.68 -12 3 C-10.3789897 2.30314502 -8.75303934 1.61777139 -7.125 0.9375 C-6.22007812 0.55464844 -5.31515625 0.17179688 -4.3828125 -0.22265625 C-2 -1 -2 -1 0 0 Z " fill="#2B604C" transform="translate(503,741)"/>
<path d="M0 0 C0.33 0.66 0.66 1.32 1 2 C-5.4 4.21538462 -5.4 4.21538462 -8.4375 3.125 C-8.953125 2.75375 -9.46875 2.3825 -10 2 C-8.71211992 1.46987262 -7.41953322 0.9511671 -6.125 0.4375 C-5.40570312 0.14746094 -4.68640625 -0.14257812 -3.9453125 -0.44140625 C-2 -1 -2 -1 0 0 Z " fill="#2F6652" transform="translate(556,720)"/>
<path d="M0 0 C-1.32 0.33 -2.64 0.66 -4 1 C-4 1.99 -4 2.98 -4 4 C-7.32534757 5.10844919 -9.62182575 4.84454356 -13 4 C-10.56272708 2.37515139 -8.62713877 1.34310925 -5.9375 0.3125 C-5.24527344 0.04050781 -4.55304687 -0.23148438 -3.83984375 -0.51171875 C-2 -1 -2 -1 0 0 Z " fill="#3B6D5B" transform="translate(531,730)"/>
<path d="M0 0 C-1.43120744 0.55808089 -2.87030355 1.09596462 -4.3125 1.625 C-5.11300781 1.92664063 -5.91351562 2.22828125 -6.73828125 2.5390625 C-7.48464844 2.69117188 -8.23101563 2.84328125 -9 3 C-9.99 2.34 -10.98 1.68 -12 1 C-10.75835303 0.43945064 -9.50616116 -0.09777907 -8.25 -0.625 C-7.55390625 -0.92664063 -6.8578125 -1.22828125 -6.140625 -1.5390625 C-3.41644339 -2.12565635 -2.31280265 -1.44810616 0 0 Z " fill="#1C5843" transform="translate(861,602)"/>
<path d="M0 0 C-0.33 0.99 -0.66 1.98 -1 3 C-3.91482778 3.80967438 -5.46113217 4.21845993 -8.3125 3.0625 C-8.869375 2.711875 -9.42625 2.36125 -10 2 C-8.71211992 1.46987262 -7.41953322 0.9511671 -6.125 0.4375 C-5.40570312 0.14746094 -4.68640625 -0.14257812 -3.9453125 -0.44140625 C-2 -1 -2 -1 0 0 Z " fill="#2A624E" transform="translate(611,488)"/>
<path d="M0 0 C0.99 0.33 1.98 0.66 3 1 C1.66511872 4.59391114 0.03977277 7.75490696 -2 11 C-3 9 -3 9 -2.44140625 6.8359375 C-2.15136719 6.02382813 -1.86132812 5.21171875 -1.5625 4.375 C-1.27503906 3.55773437 -0.98757813 2.74046875 -0.69140625 1.8984375 C-0.46324219 1.27195312 -0.23507812 0.64546875 0 0 Z " fill="#BFD4CC" transform="translate(920,774)"/>
<path d="M0 0 C-0.33 0.99 -0.66 1.98 -1 3 C-5.09724467 4.54613006 -7.81857651 5.29227216 -12 4 C-10.3767313 3.3291288 -8.75132422 2.66342971 -7.125 2 C-6.22007812 1.62875 -5.31515625 1.2575 -4.3828125 0.875 C-2 0 -2 0 0 0 Z " fill="#1C5B44" transform="translate(821,615)"/>
<path d="M0 0 C-0.639375 0.103125 -1.27875 0.20625 -1.9375 0.3125 C-2.618125 0.539375 -3.29875 0.76625 -4 1 C-4.33 1.99 -4.66 2.98 -5 4 C-7.375 4.625 -7.375 4.625 -10 5 C-10.66 4.34 -11.32 3.68 -12 3 C-10.3789897 2.30314502 -8.75303934 1.61777139 -7.125 0.9375 C-6.22007812 0.55464844 -5.31515625 0.17179688 -4.3828125 -0.22265625 C-2 -1 -2 -1 0 0 Z " fill="#346855" transform="translate(477,540)"/>
<path d="M0 0 C0 0.99 0 1.98 0 3 C-5.41538462 5.21538462 -5.41538462 5.21538462 -8.375 4.125 C-8.91125 3.75375 -9.4475 3.3825 -10 3 C-8.70990357 2.49596232 -7.41786211 1.99690074 -6.125 1.5 C-5.04605469 1.08234375 -5.04605469 1.08234375 -3.9453125 0.65625 C-2 0 -2 0 0 0 Z " fill="#235B48" transform="translate(382,788)"/>
<path d="M0 0 C-1 3 -1 3 -3 4 C-5.3329866 4.04022391 -7.66706666 4.04320247 -10 4 C-7.02096266 1.02096266 -4.19714671 0 0 0 Z " fill="#28604B" transform="translate(415,775)"/>
<path d="M0 0 C-1.4375 2 -1.4375 2 -4 4 C-7.02824418 4.35442445 -9.96485939 4.23347235 -13 4 C-10.56272708 2.37515139 -8.62713877 1.34310925 -5.9375 0.3125 C-5.24527344 0.04050781 -4.55304687 -0.23148438 -3.83984375 -0.51171875 C-2 -1 -2 -1 0 0 Z " fill="#356857" transform="translate(569,715)"/>
<path d="M0 0 C0 0.99 0 1.98 0 3 C-1.28745036 3.38922918 -2.58019597 3.76098036 -3.875 4.125 C-4.95394531 4.43824219 -4.95394531 4.43824219 -6.0546875 4.7578125 C-6.69664062 4.83773437 -7.33859375 4.91765625 -8 5 C-8.66 4.34 -9.32 3.68 -10 3 C-8.70990357 2.49596232 -7.41786211 1.99690074 -6.125 1.5 C-5.04605469 1.08234375 -5.04605469 1.08234375 -3.9453125 0.65625 C-2 0 -2 0 0 0 Z " fill="#215B47" transform="translate(923,575)"/>
<path d="M0 0 C0.97353743 3.02878312 1.24612776 5.02846457 0 8 C-1.3075002 9.03354778 -2.63936998 10.03747014 -4 11 C-3.5247412 9.35303396 -3.04468109 7.70745272 -2.5625 6.0625 C-2.29566406 5.14597656 -2.02882813 4.22945312 -1.75390625 3.28515625 C-1 1 -1 1 0 0 Z " fill="#CBDDD7" transform="translate(516,217)"/>
<path d="M0 0 C-1.5625 2.0625 -1.5625 2.0625 -4 4 C-7.75 3.75 -7.75 3.75 -11 3 C-3.71428571 -1.85714286 -3.71428571 -1.85714286 0 0 Z " fill="#3F725F" transform="translate(725,921)"/>
<path d="M0 0 C-2 3 -2 3 -4.4375 3.8125 C-7 4 -7 4 -10 2 C-8.71211992 1.46987262 -7.41953322 0.9511671 -6.125 0.4375 C-5.40570312 0.14746094 -4.68640625 -0.14257812 -3.9453125 -0.44140625 C-2 -1 -2 -1 0 0 Z M-9 4 C-7 5 -7 5 -7 5 Z " fill="#366B58" transform="translate(546,724)"/>
<path d="M0 0 C0.66 0.99 1.32 1.98 2 3 C1.34 3 0.68 3 0 3 C0.2475 3.5775 0.495 4.155 0.75 4.75 C0.8325 5.4925 0.915 6.235 1 7 C-0.9375 9.25 -0.9375 9.25 -3 11 C-3.33 10.34 -3.66 9.68 -4 9 C-3.22265625 6.8359375 -3.22265625 6.8359375 -2.0625 4.375 C-1.68222656 3.55773437 -1.30195312 2.74046875 -0.91015625 1.8984375 C-0.60980469 1.27195312 -0.30945312 0.64546875 0 0 Z " fill="#28624E" transform="translate(1093,481)"/>
<path d="M0 0 C0.66 0.99 1.32 1.98 2 3 C0.6875 5.5 0.6875 5.5 -1 8 C-1.99 8 -2.98 8 -4 8 C-2.87548273 5.0280615 -1.77706209 2.66559313 0 0 Z " fill="#1E5844" transform="translate(511,132)"/>
<path d="M0 0 C3.40312738 1.05875074 6.01353231 2.00902154 9 4 C9 4.66 9 5.32 9 6 C2.42696629 4.1011236 2.42696629 4.1011236 0 1 C0 0.67 0 0.34 0 0 Z " fill="#295B4A" transform="translate(671,122)"/>
<path d="M0 0 C0 0.99 0 1.98 0 3 C-1.98 3.66 -3.96 4.32 -6 5 C-6.66 4.34 -7.32 3.68 -8 3 C-5.36 2.01 -2.72 1.02 0 0 Z " fill="#1B5843" transform="translate(322,811)"/>
<path d="M0 0 C0 0.99 0 1.98 0 3 C-4.455 3.495 -4.455 3.495 -9 4 C-6.10130984 1.70103884 -3.84906588 0 0 0 Z " fill="#1C5944" transform="translate(882,591)"/>
<path d="M0 0 C0 0.66 0 1.32 0 2 C-0.99 2 -1.98 2 -3 2 C-3 2.66 -3 3.32 -3 4 C-5.375 4.625 -5.375 4.625 -8 5 C-8.66 4.34 -9.32 3.68 -10 3 C-8.70990357 2.49596232 -7.41786211 1.99690074 -6.125 1.5 C-5.04605469 1.08234375 -5.04605469 1.08234375 -3.9453125 0.65625 C-2 0 -2 0 0 0 Z " fill="#225C47" transform="translate(938,569)"/>
<path d="M0 0 C1.08892712 2.83121051 0.96109941 4.16532751 0.25 7.1875 C-0.36875 8.5796875 -0.36875 8.5796875 -1 10 C-1.99 10.33 -2.98 10.66 -4 11 C-2.7874262 7.27566618 -1.49140021 3.62197194 0 0 Z " fill="#306451" transform="translate(351,525)"/>
<path d="M0 0 C0.66 0.99 1.32 1.98 2 3 C0.02 5.97 0.02 5.97 -2 9 C-2.66 8.01 -3.32 7.02 -4 6 C-2.68 4.02 -1.36 2.04 0 0 Z " fill="#195440" transform="translate(153,685)"/>
<path d="M0 0 C0 0.99 0 1.98 0 3 C-4.455 3.495 -4.455 3.495 -9 4 C-6.43425105 1.43425105 -3.68548192 0 0 0 Z " fill="#1C5944" transform="translate(381,577)"/>
<path d="M0 0 C0.66 0.33 1.32 0.66 2 1 C0.375 3.0625 0.375 3.0625 -2 5 C-5.25 4.75 -5.25 4.75 -8 4 C-5.31143836 2.20762558 -3.0466145 1.01553817 0 0 Z " fill="#3E7360" transform="translate(506,527)"/>
<path d="M0 0 C-1 2 -1 2 -4 4 C-6.5625 4.75 -6.5625 4.75 -9 5 C-9.66 4.34 -10.32 3.68 -11 3 C-9.73160474 2.49384702 -8.46016898 1.99530901 -7.1875 1.5 C-6.12595703 1.08234375 -6.12595703 1.08234375 -5.04296875 0.65625 C-3 0 -3 0 0 0 Z " fill="#326855" transform="translate(630,480)"/>
<path d="M0 0 C0 3.51716303 -0.82445585 4.37121748 -3 7 C-3.66 5.35 -4.32 3.7 -5 2 C-3.35 1.34 -1.7 0.68 0 0 Z " fill="#D6E3DE" transform="translate(923,411)"/>
<path d="M0 0 C-0.33 0.99 -0.66 1.98 -1 3 C-3.375 3.625 -3.375 3.625 -6 4 C-6.66 3.34 -7.32 2.68 -8 2 C-5.09399739 0.74335022 -3.20395416 0 0 0 Z " fill="#275E4A" transform="translate(908,581)"/>
<path d="M0 0 C0 0.99 0 1.98 0 3 C-2.875 3.625 -2.875 3.625 -6 4 C-6.66 3.34 -7.32 2.68 -8 2 C-2.25 0 -2.25 0 0 0 Z " fill="#25604C" transform="translate(399,570)"/>
<path d="M0 0 C0.66 0 1.32 0 2 0 C1.01 3.3 0.02 6.6 -1 10 C-1.33 10 -1.66 10 -2 10 C-2.17942163 6.05272412 -2.09350689 3.4019487 0 0 Z " fill="#2D5F4A" transform="translate(952,431)"/>
<path d="M0 0 C0 0.99 0 1.98 0 3 C-2.875 3.625 -2.875 3.625 -6 4 C-6.66 3.34 -7.32 2.68 -8 2 C-2.25 0 -2.25 0 0 0 Z " fill="#225C47" transform="translate(937,364)"/>
<path d="M0 0 C2.97 0.99 5.94 1.98 9 3 C9 3.99 9 4.98 9 6 C8.67 5.34 8.34 4.68 8 4 C7.4225 4.2475 6.845 4.495 6.25 4.75 C5.5075 4.8325 4.765 4.915 4 5 C1.75 3.125 1.75 3.125 0 1 C0 0.67 0 0.34 0 0 Z " fill="#2C604B" transform="translate(680,82)"/>
<path d="M0 0 C2.0625 0.4375 2.0625 0.4375 4 1 C2.3125 2.5625 2.3125 2.5625 0 4 C-2.75 3.6875 -2.75 3.6875 -5 3 C-4.360625 2.690625 -3.72125 2.38125 -3.0625 2.0625 C-1.06389179 1.1654837 -1.06389179 1.1654837 0 0 Z " fill="#1B533E" transform="translate(453,759)"/>
<path d="M0 0 C2 1 2 1 3 3 C1.02 3.66 -0.96 4.32 -3 5 C-3.33 4.01 -3.66 3.02 -4 2 C-2.125 0.9375 -2.125 0.9375 0 0 Z " fill="#27614D" transform="translate(483,536)"/>
<path d="M0 0 C0.66 1.32 1.32 2.64 2 4 C1.01 5.485 1.01 5.485 0 7 C-0.66 7 -1.32 7 -2 7 C-1.34 4.69 -0.68 2.38 0 0 Z " fill="#1F5B46" transform="translate(354,518)"/>
<path d="M0 0 C0.66 0.66 1.32 1.32 2 2 C1.625 4.625 1.625 4.625 1 7 C0.34 7 -0.32 7 -1 7 C-0.67 4.69 -0.34 2.38 0 0 Z " fill="#DFECE7" transform="translate(951,438)"/>
<path d="M0 0 C0.66 0.66 1.32 1.32 2 2 C1.625 4.625 1.625 4.625 1 7 C0.01 7.33 -0.98 7.66 -2 8 C-1.34 5.36 -0.68 2.72 0 0 Z " fill="#235F4B" transform="translate(385,439)"/>
<path d="M0 0 C0 0.99 0 1.98 0 3 C-2.64 3 -5.28 3 -8 3 C-5.36657694 0.36657694 -3.69534435 0 0 0 Z " fill="#2C5E4C" transform="translate(964,354)"/>
<path d="M0 0 C0.66 0.66 1.32 1.32 2 2 C1.67 2.33 1.34 2.66 1 3 C-0.52519276 2.91062197 -2.04681929 2.75462854 -3.5625 2.5625 C-4.80193359 2.40974609 -4.80193359 2.40974609 -6.06640625 2.25390625 C-6.70449219 2.17011719 -7.34257813 2.08632813 -8 2 C-8 1.67 -8 1.34 -8 1 C-1.9453125 0.0234375 -1.9453125 0.0234375 0 0 Z " fill="#054029" transform="translate(1004,344)"/>
<path d="M0 0 C0.66 0.99 1.32 1.98 2 3 C0.02 3.99 0.02 3.99 -2 5 C-2 5.99 -2 6.98 -2 8 C-2.66 8 -3.32 8 -4 8 C-2.87548273 5.0280615 -1.77706209 2.66559313 0 0 Z " fill="#255D49" transform="translate(506,140)"/>
</svg>
